<?xml version="1.0" standalone="no"?>
<!DOCTYPE svg PUBLIC "-//W3C//DTD SVG 20010904//EN"
 "http://www.w3.org/TR/2001/REC-SVG-20010904/DTD/svg10.dtd">
<svg version="1.0" xmlns="http://www.w3.org/2000/svg"
 width="300.000000pt" height="300.000000pt" viewBox="0 0 300.000000 300.000000"
 preserveAspectRatio="xMidYMid meet">
<metadata>
Created by potrace 1.11, written by Peter Selinger 2001-2013
</metadata>
<g transform="translate(0.000000,300.000000) scale(0.100000,-0.100000)"
fill="#000000" stroke="none">
<path d="M1428 2515 c-2 -2 -28 -5 -58 -8 -30 -3 -65 -8 -76 -11 -12 -2 -38
-7 -57 -10 -50 -8 -196 -59 -274 -96 -231 -110 -443 -315 -567 -550 -45 -86
-101 -232 -112 -295 -3 -16 -9 -48 -15 -70 -11 -46 -25 -313 -16 -304 4 3 9
23 12 45 29 199 117 406 241 572 59 78 192 213 237 240 15 9 27 20 27 24 0 4
7 8 15 8 8 0 15 3 15 8 0 22 288 161 366 176 10 2 37 9 59 14 22 6 63 15 90
19 64 10 346 10 405 0 462 -80 840 -403 993 -847 14 -41 29 -91 32 -110 4 -19
13 -66 21 -105 l14 -70 -5 140 c-2 77 -7 156 -10 175 -22 125 -67 260 -123
368 -170 331 -505 589 -852 658 -14 2 -48 9 -77 15 -45 9 -278 20 -285 14z"/>
<path d="M1287 1384 c-1 -1 -36 -4 -77 -8 -41 -3 -85 -7 -96 -10 -12 -2 -37
-7 -55 -10 -233 -37 -540 -173 -754 -334 -86 -65 -295 -265 -295 -283 0 -5 21
6 48 23 26 17 58 39 72 48 107 70 362 168 535 205 100 22 138 27 275 40 l46 4
-1 -107 c0 -124 15 -175 79 -272 102 -155 291 -231 485 -195 61 11 174 63 337
156 197 113 264 146 382 193 197 77 382 111 607 110 112 -1 112 2 0 26 -100
21 -216 32 -350 33 -204 1 -362 -34 -669 -150 -82 -30 -172 -62 -200 -69 -260
-70 -483 133 -431 391 10 49 56 123 102 166 24 21 43 41 43 44 0 4 -78 3 -83
-1z"/>
</g>
</svg>
